<?xml version="1.0" standalone="no"?>
<!DOCTYPE svg PUBLIC "-//W3C//DTD SVG 20010904//EN"
 "http://www.w3.org/TR/2001/REC-SVG-20010904/DTD/svg10.dtd">
<svg version="1.0" xmlns="http://www.w3.org/2000/svg"
 width="1000.000000pt" height="1081.000000pt" viewBox="0 0 1000.000000 1081.000000"
 preserveAspectRatio="xMidYMid meet">

<g transform="translate(0.000000,1081.000000) scale(0.100000,-0.100000)"
fill="#000000" stroke="none">
<path d="M1907 10799 c-48 -5 -144 -20 -212 -34 -844 -171 -1491 -820 -1655
-1659 -161 -828 197 -1691 896 -2154 71 -47 2173 -1267 2641 -1533 104 -59
130 -79 103 -79 -6 0 -73 -35 -148 -78 -75 -43 -343 -192 -594 -332 -252 -140
-458 -257 -458 -261 0 -4 487 -740 1082 -1635 595 -896 1082 -1636 1082 -1644
1 -24 -118 -218 -200 -327 -40 -53 -72 -99 -70 -100 2 -2 187 98 412 221 l409
226 48 77 c159 255 257 527 314 868 15 90 18 164 17 405 0 273 -2 306 -27 440
-85 471 -287 888 -611 1262 l-75 86 1136 1814 c624 997 1139 1821 1144 1830 8
14 2 22 -28 41 -65 41 -3817 2219 -4003 2324 -334 189 -795 281 -1203 242z"/>
</g>
</svg>
